<?xml version="1.0" encoding="UTF-8"?>
<svg version="1.1" xmlns="http://www.w3.org/2000/svg" width="512" height="512">
<path d="M0 0 C1.0478064 -0.00832352 2.09561279 -0.01664703 3.1751709 -0.02522278 C6.63870973 -0.04931437 10.10206009 -0.05809486 13.56567383 -0.06469727 C15.97837886 -0.07366563 18.39108333 -0.08278751 20.80378723 -0.09205627 C25.86350861 -0.10854754 30.92316382 -0.11624641 35.98291016 -0.11914062 C42.45135653 -0.12451831 48.91917663 -0.16217346 55.3874464 -0.20788479 C60.37274924 -0.23770088 65.35790228 -0.24486522 70.34328651 -0.24586678 C72.72701187 -0.25006153 75.11073797 -0.26246567 77.49437523 -0.28338432 C80.8378571 -0.31038584 84.17990051 -0.30544559 87.5234375 -0.29296875 C88.98657127 -0.31522018 88.98657127 -0.31522018 90.47926331 -0.33792114 C98.10448842 -0.25731825 105.01594632 1.68235983 110.50049114 7.2510767 C115.50673109 13.39394125 118.20428125 20.06180312 117.86254883 28.01733398 C116.88628259 36.07496803 113.67430451 41.92363258 107.58520508 47.30639648 C102.50593735 50.82124975 97.67910835 51.87111768 91.58520508 52.30639648 C91.58520508 57.58639648 91.58520508 62.86639648 91.58520508 68.30639648 C92.69940826 68.29973465 93.81361145 68.29307281 94.96157837 68.28620911 C105.46700562 68.22536768 115.97239706 68.18040923 126.47796059 68.15095997 C131.87885512 68.13531079 137.27960731 68.11408596 142.68041992 68.08007812 C147.89348117 68.04745831 153.10640557 68.02953784 158.319561 68.02176476 C160.30745981 68.01622598 162.2953512 68.0054101 164.28319168 67.98920631 C167.0697365 67.96739735 169.85571741 67.96443103 172.64233398 67.96582031 C173.4623288 67.95503448 174.28232361 67.94424866 175.12716675 67.93313599 C180.02468469 67.95951973 183.33479405 68.61507182 187.58520508 71.30639648 C193.59778564 77.45562661 194.88819538 83.00748885 194.85986328 91.40380859 C194.86752968 92.58794594 194.86752968 92.58794594 194.87535095 93.79600525 C194.88919161 96.39199515 194.88829444 98.98771794 194.88598633 101.58374023 C194.88987614 103.39685667 194.8942114 105.20997219 194.89897156 107.02308655 C194.90642176 110.81831825 194.90615108 114.61345691 194.90087891 118.40869141 C194.89508419 123.26192007 194.91202113 128.11476711 194.93522358 132.9679327 C194.94998502 136.71096508 194.95082937 140.45390603 194.94771385 144.19696236 C194.94822579 145.98585326 194.95343963 147.77474944 194.96352577 149.56361198 C194.97592056 152.06918733 194.96908075 154.5740255 194.95751953 157.07958984 C194.96516327 157.8117572 194.97280701 158.54392456 194.98068237 159.29827881 C194.91617189 165.65258496 193.37427096 170.11976041 189.33520508 175.05639648 C185.93325442 177.83981066 182.14032446 180.30639648 177.58520508 180.30639648 C177.59567871 181.32999268 177.60615234 182.35358887 177.61694336 183.40820312 C177.65333007 187.23059549 177.67617308 191.05297274 177.69506836 194.87548828 C177.70508358 196.52525412 177.71869968 198.17500239 177.73608398 199.82470703 C177.7605305 202.20536654 177.77173311 204.58578995 177.78051758 206.96655273 C177.79084015 207.69600601 177.80116272 208.42545929 177.8117981 209.17701721 C177.81349429 217.03914602 176.14524315 222.60735747 170.58520508 228.30639648 C169.92520508 228.30639648 169.26520508 228.30639648 168.58520508 228.30639648 C168.58520508 248.76639648 168.58520508 269.22639648 168.58520508 290.30639648 C173.53520508 290.30639648 178.48520508 290.30639648 183.58520508 290.30639648 C191.46360327 293.22760031 196.452064 296.8025517 200.61254883 304.11108398 C203.549689 310.63505431 203.92580415 318.27887022 201.67114258 325.05249023 C198.70293191 331.34318187 198.70293191 331.34318187 195.93920898 333.72485352 C193.97269149 335.52226687 192.71872825 336.88363438 191.58520508 339.30639648 C192.00658952 343.67835676 193.57817316 347.50311124 195.21020508 351.55639648 C196.01772171 353.70637767 196.82253973 355.85737496 197.62426758 358.00952148 C198.18428467 359.4273291 198.18428467 359.4273291 198.75561523 360.8737793 C199.58520508 363.30639648 199.58520508 363.30639648 199.58520508 366.30639648 C200.82270508 366.36827148 202.06020508 366.43014648 203.33520508 366.49389648 C206.59532687 366.9158626 207.47417062 367.2120172 210.08520508 369.43139648 C212.00322323 373.10759794 212.24333005 375.21139665 211.58520508 379.30639648 C209.14770508 382.18139648 209.14770508 382.18139648 206.58520508 384.30639648 C206.25520508 384.63639648 205.92520508 384.96639648 205.58520508 385.30639648 C205.85240242 386.93167391 206.20057048 388.54375246 206.58129883 390.14624023 C206.92451172 391.61673828 206.92451172 391.61673828 207.2746582 393.11694336 C207.52151367 394.14883789 207.76836914 395.18073242 208.02270508 396.24389648 C208.50240843 398.27341066 208.9803612 400.30333966 209.45629883 402.33374023 C209.67213623 403.23858154 209.88797363 404.14342285 210.11035156 405.07568359 C210.58520508 407.30639648 210.58520508 407.30639648 210.58520508 409.30639648 C211.84333008 409.38889648 213.10145508 409.47139648 214.39770508 409.55639648 C218.30516689 410.05345876 218.30516689 410.05345876 220.52270508 412.05639648 C222.21585043 415.64188076 222.91914376 418.03135788 221.89770508 421.93139648 C220.4300471 424.58715854 219.20404997 425.7985767 216.58520508 427.30639648 C215.59520508 427.30639648 214.60520508 427.30639648 213.58520508 427.30639648 C214.04926758 429.03889648 214.04926758 429.03889648 214.52270508 430.80639648 C216.11980817 437.8631002 216.24931185 445.10237063 216.58520508 452.30639648 C217.6912207 452.27416992 218.79723633 452.24194336 219.93676758 452.20874023 C223.58520508 452.30639648 223.58520508 452.30639648 225.96020508 453.86889648 C228.15001345 457.15360905 228.58520508 459.35893714 228.58520508 463.30639648 C227.02270508 466.68139648 227.02270508 466.68139648 224.58520508 469.30639648 C221.33520508 470.18139648 221.33520508 470.18139648 218.58520508 470.30639648 C218.75020508 471.17264648 218.91520508 472.03889648 219.08520508 472.93139648 C220.602024 483.88372132 220.04968682 492.64393159 214.96020508 502.43139648 C211.15874704 507.03316148 206.25946393 510.41497687 200.58520508 512.30639648 C198.8829427 512.40089371 197.17719679 512.4373088 195.47231674 512.44061756 C194.40822484 512.44507541 193.34413293 512.44953325 192.24779582 512.45412618 C191.07456995 512.45394182 189.90134408 512.45375745 188.69256592 512.4535675 C187.44945813 512.45724419 186.20635035 512.46092088 184.92557263 512.46470898 C181.46837167 512.47383905 178.01121819 512.47844621 174.55400968 512.48109829 C170.82791483 512.48500048 167.10183375 512.49457884 163.37574768 512.50331116 C154.37429496 512.52307732 145.37284111 512.53314168 136.3713721 512.54203895 C132.13345763 512.54642134 127.89554441 512.55178825 123.65763092 512.55702782 C109.57186009 512.57403976 95.48609004 512.58853448 81.40031052 512.59577656 C77.74465687 512.59768648 74.08900323 512.59960681 70.43334961 512.6015625 C69.52474478 512.60204624 68.61613995 512.60252998 67.68000165 512.60302838 C52.95736844 512.61133076 38.23481643 512.63667132 23.51221868 512.66914318 C8.40043243 512.702202 -6.71131253 512.72022423 -21.82313514 512.7234208 C-30.30934925 512.72558692 -38.79544494 512.73435051 -47.28162384 512.75988197 C-54.5079924 512.78157286 -61.73421377 512.78964735 -68.96061119 512.77991519 C-72.64759947 512.77536585 -76.33428395 512.77729314 -80.0212307 512.79667664 C-84.01910868 512.81751329 -88.01631089 512.80733812 -92.01422119 512.79414368 C-93.76067566 512.81059755 -93.76067566 512.81059755 -95.54241204 512.82738382 C-103.69285646 512.76229624 -107.92661383 511.38897512 -114.10229492 505.93139648 C-121.15255036 497.92840382 -122.95325019 490.7216598 -122.41479492 480.30639648 C-122.14579328 476.96439298 -121.81146201 473.63556672 -121.41479492 470.30639648 C-122.34291992 470.22389648 -123.27104492 470.14139648 -124.22729492 470.05639648 C-127.41479492 469.30639648 -127.41479492 469.30639648 -129.22729492 467.61889648 C-130.71317709 464.72533646 -131.28175837 462.56579201 -131.41479492 459.30639648 C-129.81067644 455.77733582 -128.67320131 454.47866741 -125.41479492 452.30639648 C-122.22729492 452.18139648 -122.22729492 452.18139648 -119.41479492 452.30639648 C-119.36581055 451.33959961 -119.31682617 450.37280273 -119.26635742 449.37670898 C-118.83450293 441.8564842 -118.19526436 434.6529937 -116.41479492 427.30639648 C-117.20241211 427.17362305 -117.9900293 427.04084961 -118.80151367 426.90405273 C-121.41479492 426.30639648 -121.41479492 426.30639648 -123.22729492 424.74389648 C-124.93846976 421.23148497 -125.10751434 418.13996872 -124.41479492 414.30639648 C-122.85229492 411.86889648 -122.85229492 411.86889648 -120.41479492 410.30639648 C-118.08870922 409.92576428 -115.75497635 409.58765516 -113.41479492 409.30639648 C-113.29885986 408.72148437 -113.1829248 408.13657227 -113.06347656 407.53393555 C-112.53576683 404.87455279 -112.00654634 402.21547284 -111.47729492 399.55639648 C-111.29489258 398.63600586 -111.11249023 397.71561523 -110.92456055 396.76733398 C-110.65869141 395.4331543 -110.65869141 395.4331543 -110.38745117 394.07202148 C-110.14393921 392.84660645 -110.14393921 392.84660645 -109.89550781 391.59643555 C-109.41479492 389.30639648 -109.41479492 389.30639648 -108.70556641 387.17260742 C-108.60961182 386.55675781 -108.51365723 385.9409082 -108.41479492 385.30639648 C-110.74812826 382.63972982 -110.74812826 382.63972982 -113.41479492 380.30639648 C-114.85910347 377.41777939 -114.79167998 375.50991947 -114.41479492 372.30639648 C-111.68811879 368.58820176 -110.14211524 367.46139917 -105.60229492 366.49389648 C-104.02448242 366.40108398 -104.02448242 366.40108398 -102.41479492 366.30639648 C-102.1544043 365.04311523 -101.89401367 363.77983398 -101.62573242 362.47827148 C-92.47092052 321.48133022 -69.52341537 267.204459 -42.14097595 234.79890442 C-38.11759576 229.86030181 -37.67916718 225.91265727 -37.70776367 219.65405273 C-37.68508171 218.30385292 -37.68508171 218.30385292 -37.66194153 216.92637634 C-37.6192244 214.07362504 -37.6102421 211.22193511 -37.60229492 208.36889648 C-37.57913815 206.42550921 -37.55377037 204.48214694 -37.52612305 202.53881836 C-37.4634287 197.79458457 -37.43096865 193.0510077 -37.41479492 188.30639648 C-38.04458252 188.32734375 -38.67437012 188.34829102 -39.32324219 188.36987305 C-42.20776064 188.45359747 -45.0920226 188.50523269 -47.97729492 188.55639648 C-48.96793945 188.58991211 -49.95858398 188.62342773 -50.97924805 188.65795898 C-57.3928699 188.74318984 -61.21998149 188.15927409 -66.41479492 184.30639648 C-70.46867133 179.07902953 -71.53726168 175.37218579 -71.59179688 168.85058594 C-71.60165367 167.87434013 -71.60165367 167.87434013 -71.61170959 166.87837219 C-71.6314104 164.72547278 -71.64310002 162.57264314 -71.65307617 160.41967773 C-71.6571517 159.68219992 -71.66122723 158.9447221 -71.66542625 158.18489647 C-71.68627668 154.27886614 -71.7005809 150.37287079 -71.70996094 146.46679688 C-71.72100297 142.44638292 -71.75537958 138.42652585 -71.79513264 134.40630817 C-71.82137313 131.30318729 -71.82965947 128.20019738 -71.83324242 125.09697533 C-71.83809189 123.61590008 -71.8496589 122.13483003 -71.86828041 120.65386391 C-71.96255716 112.6568111 -71.98490756 106.14815641 -67.41479492 99.30639648 C-62.85391411 94.74551568 -58.0378459 93.20522575 -51.67260742 93.11108398 C-49.96156002 93.12424589 -48.2505651 93.14790249 -46.53979492 93.18139648 C-45.6606543 93.19041992 -44.78151367 93.19944336 -43.87573242 93.20874023 C-41.72196782 93.23215072 -39.56834478 93.26801639 -37.41479492 93.30639648 C-37.31682617 92.65413086 -37.21885742 92.00186523 -37.11791992 91.32983398 C-35.46341438 81.65953438 -31.22911304 76.1135074 -23.41479492 70.30639648 C-17.92117457 67.4347313 -11.48264652 67.91580125 -5.41479492 68.30639648 C-4.75479492 68.63639648 -4.09479492 68.96639648 -3.41479492 69.30639648 C-3.41479492 63.69639648 -3.41479492 58.08639648 -3.41479492 52.30639648 C-4.94104492 52.05889648 -6.46729492 51.81139648 -8.03979492 51.55639648 C-15.97631721 49.93555743 -20.76680411 45.73680266 -25.41479492 39.30639648 C-29.19567135 33.00493577 -29.30767913 26.526739 -28.41479492 19.30639648 C-26.00721163 11.26997263 -20.80693339 5.21454649 -13.43681335 1.23960876 C-8.9690162 -0.1400662 -4.65112832 0.00313683 0 0 Z " fill="#000000" transform="translate(207.414794921875,-0.306396484375)"/>
<path d="M0 0 C0.33 0 0.66 0 1 0 C1.029729 0.9132605 1.029729 0.9132605 1.06005859 1.8449707 C1.85788271 25.14275713 4.76829593 44.26002548 21.4375 61.875 C36.10871392 75.50067914 52.72849298 80.45622265 72.38549805 80.43237305 C73.90435067 80.44140793 75.42319604 80.45173933 76.94203186 80.46325684 C81.03217883 80.49065057 85.1221868 80.50008716 89.21241355 80.50611091 C93.49923359 80.51554085 97.78595167 80.54174771 102.07270813 80.56611633 C110.17549472 80.60965858 118.27826139 80.63828072 126.38112909 80.66143972 C135.61222291 80.68855748 144.84321352 80.73246474 154.07423341 80.77772844 C173.04943432 80.87039875 192.02466254 80.94215982 211 81 C212.34090793 84.7681831 213.6714179 88.53995521 215 92.3125 C215.3815625 93.38435547 215.763125 94.45621094 216.15625 95.56054688 C216.5171875 96.58857422 216.878125 97.61660156 217.25 98.67578125 C217.58515625 99.62364502 217.9203125 100.57150879 218.265625 101.5480957 C219 104 219 104 219 107 C131.22 107 43.44 107 -47 107 C-45.29305633 99.31875349 -43.20598091 92.36023016 -40.5625 85 C-40.12365479 83.77611572 -39.68480957 82.55223145 -39.23266602 81.29125977 C-34.74779259 68.92780581 -29.49066159 56.94536425 -24 45 C-23.25350244 43.34262974 -22.50738555 41.68508795 -21.76171875 40.02734375 C-15.49106899 26.27269204 -8.39154614 12.58731921 0 0 Z " fill="#5F7C8A" transform="translate(170,260)"/>
<path d="M0 0 C1.38920683 0.00056958 1.38920683 0.00056958 2.80647844 0.00115067 C3.87090514 -0.00084038 4.93533184 -0.00283143 6.03201389 -0.00488281 C7.21584028 -0.00196997 8.39966667 0.00094287 9.61936659 0.00394398 C10.86570448 0.00308955 12.11204238 0.00223513 13.39614809 0.00135481 C16.87138022 -0.00089248 20.34658183 0.00313432 23.82181007 0.00813287 C27.56347709 0.01243385 31.30514225 0.0109912 35.04681104 0.0102306 C41.53475125 0.00970514 48.02268142 0.01285424 54.5106191 0.01846844 C63.89119609 0.02658046 73.27176822 0.02919835 82.65234833 0.03045643 C97.87011185 0.03264742 113.08787001 0.03930877 128.30563062 0.04875904 C143.09208868 0.05793195 157.87854529 0.06501338 172.66500562 0.06926686 C174.03116202 0.06966094 174.03116202 0.06966094 175.42491753 0.07006299 C179.99378862 0.07136798 184.56265972 0.0726317 189.13153082 0.07387489 C227.06106848 0.08424896 264.99060018 0.10186855 302.92013258 0.1241985 C303.03645771 3.54057803 303.10742155 6.95644747 303.17013258 10.3741985 C303.2036482 11.34228443 303.23716383 12.31037037 303.27169508 13.30779225 C303.37092593 20.50202916 303.37092593 20.50202916 301.02950758 23.7335735 C297.76348791 25.8867272 295.97002155 26.25105885 292.08087915 26.26121289 C290.53812871 26.2688247 290.53812871 26.2688247 288.96421158 26.27659029 C287.25632138 26.27733692 287.25632138 26.27733692 285.51392835 26.27809864 C283.7096849 26.28467202 283.7096849 26.28467202 281.86899209 26.2913782 C278.51968786 26.30246017 275.17043044 26.30899601 271.8211146 26.31355935 C268.21296714 26.31950902 264.60483699 26.33112037 260.99670118 26.34184986 C252.27812572 26.36638729 243.55954453 26.38100237 234.84094515 26.39390993 C232.37950319 26.39762069 229.91806179 26.40159401 227.4566204 26.4056626 C212.17950575 26.4308964 196.90239023 26.45295489 181.62525934 26.46539074 C178.08561093 26.46832056 174.54596255 26.4712822 171.00631422 26.47429615 C170.12652542 26.4750422 169.24673661 26.47578825 168.34028754 26.47655691 C154.08180749 26.489216 139.82345198 26.52244579 125.56503018 26.56409799 C110.93467132 26.60648729 96.30437628 26.63008224 81.67395616 26.63531131 C73.45603562 26.6387287 65.23830977 26.65052241 57.02044958 26.68341404 C50.02308026 26.71137445 43.02594551 26.72243162 36.02852466 26.71121858 C32.45715893 26.70602164 28.88628473 26.70898467 25.31498998 26.73368412 C21.44555455 26.76022264 17.57679408 26.74815139 13.70728773 26.73220021 C12.57538643 26.74608229 11.44348513 26.75996438 10.27728379 26.77426714 C2.68729741 26.69683872 2.68729741 26.69683872 -1.28009611 23.73542935 C-3.21755676 20.92442943 -3.68615072 19.66244192 -3.60330492 16.2960735 C-3.58590258 14.97349537 -3.58590258 14.97349537 -3.56814867 13.6241985 C-3.53076586 12.7166985 -3.49338305 11.8091985 -3.45486742 10.8741985 C-3.44068774 9.95122975 -3.42650805 9.028261 -3.41189867 8.0773235 C-3.23798761 0.19335521 -3.23798761 0.19335521 0 0 Z " fill="#5F7C8A" transform="translate(106.07986742258072,468.8758015036583)"/>
<path d="M0 0 C91.08 0 182.16 0 276 0 C277.87584871 5.62754614 279.49520703 10.65956387 280.6875 16.375 C280.93886719 17.55835938 281.19023437 18.74171875 281.44921875 19.9609375 C282 23 282 23 282 26 C186.96 26 91.92 26 -6 26 C-3 9 -3 9 0 0 Z " fill="#5F7C8A" transform="translate(118,384)"/>
<path d="M0 0 C31.02 0 62.04 0 94 0 C94 25.41 94 50.82 94 77 C62.98 77 31.96 77 0 77 C0 51.59 0 26.18 0 0 Z " fill="#9E9E9E" transform="translate(290,85)"/>
<path d="M0 0 C92.07 0 184.14 0 279 0 C282 23 282 23 282 25 C188.28 25 94.56 25 -2 25 C-1 8 -1 8 0 0 Z " fill="#5F7C8A" transform="translate(108,427)"/>
<path d="M0 0 C4.09232353 1.36410784 5.1054603 2.4974658 7.375 6.125 C7.75520507 8.82021996 7.90681333 11.10105612 7.86706543 13.78945923 C7.87174442 14.55367797 7.87642341 15.31789672 7.88124418 16.1052736 C7.89216469 18.66248662 7.87469459 21.21871264 7.85742188 23.77587891 C7.8596081 25.61096487 7.86360538 27.44604943 7.86927795 29.28112793 C7.8778437 33.23226892 7.87405764 37.18313829 7.8608551 41.1342659 C7.84051413 47.38829682 7.85049893 53.64205417 7.8651123 59.89608765 C7.89415229 74.30843235 7.88343196 88.72069691 7.87241364 103.13305664 C7.86272997 116.32715443 7.86152021 129.52110918 7.89229441 142.71518266 C7.90563544 148.92506253 7.89975302 155.13453124 7.87892914 161.34438634 C7.86990954 165.21925116 7.87744799 169.0939594 7.88934135 172.96881104 C7.89146274 174.75736401 7.88680631 176.54594076 7.8746357 178.33445358 C7.79620086 190.55620976 8.51142112 201.39694551 16.53515625 211.33984375 C22.88324869 217.49924554 31.01873188 221.37056783 39.82702637 221.38328552 C41.78278847 221.39352753 41.78278847 221.39352753 43.77806091 221.40397644 C45.21597318 221.40155726 46.65388517 221.398973 48.09179688 221.39624023 C49.61149881 221.40062905 51.13119833 221.40593178 52.65089417 221.41207886 C55.91934174 221.42356672 59.18772459 221.42903737 62.45619202 221.42996025 C67.62478523 221.43190245 72.79324466 221.44996316 77.96179199 221.47071838 C90.79816009 221.51988326 103.63456443 221.5508022 116.4710083 221.57202148 C126.4500032 221.58854121 136.42888323 221.61134041 146.40780115 221.65504223 C151.5454676 221.67682608 156.68291585 221.6848758 161.82062531 221.68264949 C165.01671637 221.68431604 168.21266487 221.69836303 171.40870476 221.71586227 C172.89015097 221.72146205 174.37162674 221.72194674 175.85307503 221.71692467 C177.87637953 221.71078497 179.89971521 221.72475965 181.92297363 221.73973083 C183.620854 221.74274783 183.620854 221.74274783 185.35303497 221.74582577 C188.75053699 222.17211965 190.64005527 223.09724364 193.375 225.125 C194.94200442 228.25900885 195.22664561 231.75655095 194.375 235.125 C190.5936512 238.85717065 188.11282696 239.62601065 182.85618591 239.63293457 C181.53721817 239.64421387 180.21825043 239.65549316 178.85931396 239.66711426 C177.4041726 239.65933732 175.94903341 239.65114466 174.49389648 239.64257812 C172.955992 239.6480006 171.41809271 239.65512397 169.88020325 239.66381836 C165.70614342 239.68205066 161.53247923 239.67498187 157.3584125 239.66230202 C152.98112356 239.65216105 148.60386806 239.66157192 144.22657776 239.66784668 C136.86835674 239.67512529 129.51029625 239.66553545 122.15209961 239.64648438 C113.66846635 239.62477177 105.18521849 239.6317251 96.70159477 239.65379 C89.40366892 239.67200573 82.10585844 239.67447059 74.80791718 239.66403532 C70.4558441 239.65782688 66.10395138 239.65689006 61.75189018 239.67018127 C57.65183029 239.68182727 53.55226084 239.67355638 49.45225334 239.65060425 C47.95600698 239.64536101 46.45971861 239.64675476 44.96348953 239.65565491 C29.24695262 239.74044423 16.24618614 235.67627834 4.5625 224.8125 C-7.81927274 211.48510261 -10.37755602 196.37790446 -10.2878418 179.01171875 C-10.29627024 177.11644997 -10.30680207 175.22118957 -10.31925964 173.32594299 C-10.34614815 168.21688516 -10.34165227 163.10831875 -10.32955909 157.9992218 C-10.32239921 153.72672943 -10.33094529 149.45432629 -10.33946449 145.1818409 C-10.35936194 135.10796086 -10.35390336 125.03431853 -10.33178711 114.96044922 C-10.30936615 104.57121856 -10.32710399 94.18260744 -10.36483639 83.7934351 C-10.3960445 74.85893811 -10.40399594 65.92463317 -10.39288265 56.99008846 C-10.38639415 51.6596307 -10.38840698 46.32953132 -10.41220665 40.99911499 C-10.4334163 35.99516607 -10.42553647 30.99209624 -10.39511299 25.98820305 C-10.3887738 24.15198319 -10.39267479 22.31569538 -10.40752411 20.47952461 C-10.42614714 17.97394304 -10.40785696 15.47125634 -10.38017273 12.96582031 C-10.39423918 12.23829906 -10.40830563 11.5107778 -10.42279834 10.76121044 C-10.36053717 7.96818548 -10.13177279 5.76502797 -8.36637652 3.53542328 C-5.47139881 0.95431329 -3.91602846 0.13503546 0 0 Z " fill="#F24234" transform="translate(197.625,84.875)"/>
<path d="M0 0 C11.55 0 23.1 0 35 0 C34.67 31.02 34.34 62.04 34 94 C12 94 12 94 4 89 C0.20344215 83.94271213 -0.57649668 79.98955552 -0.45410156 73.67797852 C-0.45468567 72.87716354 -0.45526978 72.07634857 -0.45587158 71.25126648 C-0.45310374 68.62669228 -0.42207485 66.00327994 -0.390625 63.37890625 C-0.38315795 61.55045695 -0.37746721 59.72199961 -0.37347412 57.89353943 C-0.35825428 53.09788641 -0.3190042 48.30272352 -0.2746582 43.50726318 C-0.2336265 38.6071231 -0.21544628 33.70690326 -0.1953125 28.80664062 C-0.15250603 19.20417789 -0.08218632 9.60220652 0 0 Z " fill="#36464E" transform="translate(222,196)"/>
<path d="M0 0 C16.83 0 33.66 0 51 0 C51.4375 14.75 51.4375 14.75 51.56811523 19.38574219 C51.6252771 21.19800293 51.6252771 21.19800293 51.68359375 23.046875 C51.73858032 24.90070801 51.73858032 24.90070801 51.79467773 26.79199219 C51.95979819 29.37187658 52.2464387 31.54355106 53 34 C49.75488149 38.48662644 46.23059384 42.31358635 40.69128418 43.49053955 C34.0908462 44.14375237 27.49109211 43.81418571 20.875 43.5625 C13.98625 43.376875 7.0975 43.19125 0 43 C0 28.81 0 14.62 0 0 Z " fill="#7E8D93" transform="translate(222,136)"/>
<path d="M0 0 C19.8 0 39.6 0 60 0 C60 11.22 60 22.44 60 34 C40.2 34 20.4 34 0 34 C0 22.78 0 11.56 0 0 Z " fill="#6E6E6E" transform="translate(307,179)"/>
<path d="M0 0 C19.8 0 39.6 0 60 0 C60 6.6 60 13.2 60 20 C58.35 21.32 56.7 22.64 55 24 C53.68 27.3 52.36 30.6 51 34 C34.17 34 17.34 34 0 34 C0 22.78 0 11.56 0 0 Z " fill="#7D8C92" transform="translate(222,51)"/>
<path d="M0 0 C1.43745323 -0.00810448 1.43745323 -0.00810448 2.90394592 -0.01637268 C6.06713886 -0.02886536 9.22942262 -0.0123649 12.39257812 0.00561523 C14.59305875 0.00546026 16.79353966 0.00397153 18.99401855 0.00120544 C23.60404539 -0.0001788 28.2137612 0.01238404 32.82373047 0.03515625 C38.73206005 0.06354065 44.63987284 0.06080374 50.54824066 0.04806614 C55.09157727 0.0411102 59.63479448 0.04889734 64.17811584 0.06132317 C66.3566085 0.06583847 68.53511397 0.06617378 70.71360779 0.06225777 C73.75855773 0.05934645 76.80279622 0.07584931 79.84765625 0.09765625 C80.74754776 0.0931546 81.64743927 0.08865295 82.57460022 0.08401489 C87.32831865 0.14056195 90.58273144 0.37298425 94.42382812 3.50170898 C95.99318406 6.64042086 95.77583915 9.0402672 95.42382812 12.50170898 C93.42394954 15.31574008 91.83064054 17.1890668 88.36193657 17.95993233 C85.7783013 18.14704954 83.23848912 18.16572647 80.64819336 18.1328125 C79.66877777 18.1399678 78.68936218 18.14712311 77.68026733 18.15449524 C74.44717583 18.17138574 71.21547007 18.15197818 67.98242188 18.13061523 C65.73470444 18.13144383 63.48698706 18.13390285 61.23927307 18.13792419 C56.53083029 18.14078236 51.82286315 18.1260773 47.11450195 18.09863281 C41.07592742 18.06453095 35.0382024 18.07057488 28.99958706 18.08929539 C24.35932825 18.09985729 19.71926755 18.09093514 15.07902718 18.07591057 C12.85226085 18.0707237 10.62547388 18.07121665 8.39871025 18.07745552 C5.28870929 18.08289855 2.17993015 18.06256163 -0.92993164 18.03515625 C-1.8521199 18.04168213 -2.77430817 18.04820801 -3.72444153 18.05493164 C-9.95313048 17.96147986 -9.95313048 17.96147986 -13.1436615 15.60704041 C-14.77838725 13.20451715 -15.14361868 11.89064511 -15.13867188 9.00170898 C-15.16058594 8.24889648 -15.1825 7.49608398 -15.20507812 6.72045898 C-13.1611388 -0.49045739 -6.1289163 -0.06584591 0 0 Z " fill="#9D9D9D" transform="translate(211.576171875,16.498291015625)"/>
<path d="M0 0 C0 35.97 0 71.94 0 109 C-5.61 109 -11.22 109 -17 109 C-17.11320875 97.30779991 -17.20483601 85.61596711 -17.25906086 73.92334175 C-17.28509331 68.49328279 -17.32037524 63.06362004 -17.37719727 57.63378906 C-17.4317436 52.38826508 -17.46146826 47.14312088 -17.47438622 41.89733505 C-17.48358557 39.90153912 -17.50154959 37.90576268 -17.52865028 35.91012955 C-17.80610017 14.62209263 -17.80610017 14.62209263 -9.83203125 5.52734375 C-9.16558594 5.00269531 -8.49914062 4.47804687 -7.8125 3.9375 C-7.13832031 3.38964844 -6.46414063 2.84179688 -5.76953125 2.27734375 C-3.71577869 0.79483362 -2.56045686 0 0 0 Z " fill="#01A7F1" transform="translate(290,181)"/>
<path d="M0 0 C31.02 0 62.04 0 94 0 C94 25.41 94 50.82 94 77 C88.39 77 82.78 77 77 77 C77 51.92 77 26.84 77 1 C51.92 1 26.84 1 1 1 C1 26.08 1 51.16 1 77 C0.67 77 0.34 77 0 77 C0 51.59 0 26.18 0 0 Z " fill="#6F6F6F" transform="translate(290,85)"/>
<path d="M0 0 C5.94 0 11.88 0 18 0 C18 19.8 18 39.6 18 60 C12.06 60 6.12 60 0 60 C0 40.2 0 20.4 0 0 Z " fill="#EFB507" transform="translate(341,230)"/>
<path d="M0 0 C5.94 0 11.88 0 18 0 C18 19.8 18 39.6 18 60 C12.06 60 6.12 60 0 60 C0 40.2 0 20.4 0 0 Z " fill="#F0D200" transform="translate(307,230)"/>
<path d="M0 0 C37.43683921 -0.02286501 74.87367737 -0.04049753 112.31052214 -0.05106533 C116.72548808 -0.05231611 121.140454 -0.05361042 125.55541992 -0.05493164 C126.43439835 -0.05519395 127.31337679 -0.05545626 128.21899093 -0.05572652 C142.4705418 -0.0600835 156.72208867 -0.0679712 170.97363716 -0.0771528 C185.58583208 -0.08648856 200.1980249 -0.09205544 214.81022269 -0.09408849 C223.83420112 -0.09546388 232.85816821 -0.09981533 241.88214315 -0.10791647 C248.06156912 -0.11318297 254.24098919 -0.11480451 260.42041724 -0.11350138 C263.99109376 -0.11285785 267.56175038 -0.11387719 271.1324234 -0.11920547 C274.99441263 -0.12492673 278.85637551 -0.12300109 282.71836853 -0.12025452 C283.85939449 -0.12316736 285.00042045 -0.1260802 286.17602295 -0.12908131 C287.71518697 -0.12609474 287.71518697 -0.12609474 289.28544521 -0.12304783 C290.17816771 -0.12342755 291.07089021 -0.12380727 291.9906649 -0.1241985 C294 0 294 0 295 1 C295.2972698 2.58189334 295.53827778 4.17445751 295.75390625 5.76953125 C295.95209961 7.22649414 295.95209961 7.22649414 296.15429688 8.71289062 C296.28900391 9.73576172 296.42371094 10.75863281 296.5625 11.8125 C296.70107422 12.82376953 296.83964844 13.83503906 296.98242188 14.87695312 C297.53223595 18.97482849 298 22.85684569 298 27 C198.34 27 98.68 27 -4 27 C-4 25.35 -4 23.7 -4 22 C-3.67 23.32 -3.34 24.64 -3 26 C90.72 26 184.44 26 281 26 C280.67 25.34 280.34 24.68 280 24 C279.60261904 21.06170137 279.25054921 18.13480036 278.9375 15.1875 C278.80118164 13.97610352 278.80118164 13.97610352 278.66210938 12.74023438 C278.22914728 8.76544704 278 5.02055971 278 1 C186.26 1 94.52 1 0 1 C0 0.67 0 0.34 0 0 Z " fill="#273238" transform="translate(109,426)"/>
<path d="M0 0 C5.61 0 11.22 0 17 0 C17 19.8 17 39.6 17 60 C11.39 60 5.78 60 0 60 C0 40.2 0 20.4 0 0 Z " fill="#9A9A9A" transform="translate(154,111)"/>
<path d="M0 0 C16.83 0 33.66 0 51 0 C51 5.61 51 11.22 51 17 C34.17 17 17.34 17 0 17 C0 11.39 0 5.78 0 0 Z " fill="#F9D900" transform="translate(222,102)"/>
<path d="M0 0 C0.33 0 0.66 0 1 0 C1.01981934 0.60884033 1.03963867 1.21768066 1.06005859 1.8449707 C1.87590157 25.66893769 4.95634317 46.34486448 23.2265625 63.5 C26.36928604 66.15816264 29.64323332 68.61974727 33 71 C27.50545703 72.83151432 22.06336088 69.31128862 17 67 C2.95309725 59.11617583 -6.92990305 49.11724781 -13 34 C-13.51304687 32.80246094 -14.02609375 31.60492188 -14.5546875 30.37109375 C-15.99387691 24.21983747 -11.85555937 19.21570034 -8.75 14.1875 C-8.13769531 13.15173828 -7.52539062 12.11597656 -6.89453125 11.04882812 C-4.67355843 7.30913756 -2.41276246 3.61914369 0 0 Z " fill="#36464E" transform="translate(170,260)"/>
<path d="M0 0 C100.65 0 201.3 0 305 0 C305 6.93 305 13.86 305 21 C300.03320053 25.96679947 300.03320053 25.96679947 295.9609375 26.09765625 C294.77757812 26.08605469 293.59421875 26.07445312 292.375 26.0625 C291.18648438 26.05347656 289.99796875 26.04445313 288.7734375 26.03515625 C287.85820312 26.02355469 286.94296875 26.01195312 286 26 C286.33 24.68 286.66 23.36 287 22 C287.33 15.07 287.66 8.14 288 1 C192.96 1 97.92 1 0 1 C0 0.67 0 0.34 0 0 Z " fill="#37474F" transform="translate(104,469)"/>
<path d="M0 0 C5.28 0 10.56 0 16 0 C18.96498584 8.18900851 22 17.22917296 22 26 C-73.04 26 -168.08 26 -266 26 C-266 25.67 -266 25.34 -266 25 C-176.57 25 -87.14 25 5 25 C3.35 18.4 1.7 11.8 0 5 C0 3.35 0 1.7 0 0 Z " fill="#37474F" transform="translate(378,384)"/>
<path d="M0 0 C16.83 0 33.66 0 51 0 C51.4375 14.75 51.4375 14.75 51.56811523 19.38574219 C51.6252771 21.19800293 51.6252771 21.19800293 51.68359375 23.046875 C51.73858032 24.90070801 51.73858032 24.90070801 51.79467773 26.79199219 C51.95979819 29.37187658 52.2464387 31.54355106 53 34 C48.9703285 38.67961852 45.50619243 42.60387661 39.21875 43.59765625 C35.77241567 43.5661349 32.422219 43.39942325 29 43 C32.51935635 40.09817978 35.85528561 37.92777413 40 36 C39.195625 35.236875 38.39125 34.47375 37.5625 33.6875 C33.8252435 29.76793831 33.87784475 27.01906869 33.90234375 21.80078125 C33.90484131 20.71192627 33.90733887 19.62307129 33.90991211 18.5012207 C33.91901611 17.11894287 33.92812012 15.73666504 33.9375 14.3125 C33.958125 9.919375 33.97875 5.52625 34 1 C22.78 1 11.56 1 0 1 C0 0.67 0 0.34 0 0 Z " fill="#52595D" transform="translate(222,136)"/>
<path d="M0 0 C48.18 0 96.36 0 146 0 C154 23 154 23 154 26 C148.39 26 142.78 26 137 26 C136.01798826 22.77167394 135.03929467 19.54240456 134.0625 16.3125 C133.78470703 15.40048828 133.50691406 14.48847656 133.22070312 13.54882812 C132.81948242 12.21948242 132.81948242 12.21948242 132.41015625 10.86328125 C132.16402588 10.05157471 131.91789551 9.23986816 131.66430664 8.40356445 C130.9904724 5.96552768 130.49606435 3.48032177 130 1 C87.1 1 44.2 1 0 1 C0 0.67 0 0.34 0 0 Z " fill="#35454D" transform="translate(235,341)"/>
<path d="M0 0 C5.61 0 11.22 0 17 0 C17.13497449 3.25138544 17.23409172 6.4971766 17.3125 9.75 C17.35439453 10.67039062 17.39628906 11.59078125 17.43945312 12.5390625 C17.48611846 15.11498898 17.46823025 17.46538155 17 20 C14.625 22.3125 14.625 22.3125 12 24 C10.57852512 26.53787479 10.57852512 26.53787479 9.6875 29.25 C9.130625 30.8175 8.57375 32.385 8 34 C2.39 34 -3.22 34 -9 34 C-7.9505054 29.8020216 -7.2832013 28.62656104 -4 26 C-2.68 26 -1.36 26 0 26 C0 17.42 0 8.84 0 0 Z " fill="#525A5E" transform="translate(265,51)"/>
<path d="M0 0 C19.34080903 -0.07007057 38.68159232 -0.1229786 58.02250195 -0.15543652 C67.00275604 -0.17090763 75.98293128 -0.19200183 84.96313477 -0.22631836 C92.78997278 -0.25621322 100.61675369 -0.27557322 108.44364721 -0.28226548 C112.58822245 -0.2861776 116.73263431 -0.29537666 120.87715721 -0.31719017 C124.77838116 -0.33755673 128.67937446 -0.34383349 132.58064651 -0.33932304 C134.01212251 -0.34014817 135.44360623 -0.34611295 136.87503624 -0.35761642 C138.83067107 -0.37256131 140.78642973 -0.36716156 142.74211121 -0.36076355 C144.38336361 -0.36491162 144.38336361 -0.36491162 146.05777264 -0.36914349 C149.41273435 0.05178328 151.29466014 1.00349357 154 3 C155.56700442 6.13400885 155.85164561 9.63155095 155 13 C152.26234792 15.92627988 150.67461697 16.92091243 146.66796875 17.390625 C145.51941406 17.34421875 144.37085938 17.2978125 143.1875 17.25 C142.02605469 17.21390625 140.86460937 17.1778125 139.66796875 17.140625 C138.78753906 17.09421875 137.90710938 17.0478125 137 17 C137.24363281 15.87464844 137.24363281 15.87464844 137.4921875 14.7265625 C138.31834289 10.29074357 138.43095031 6.29285092 137 2 C69.185 1.505 69.185 1.505 0 1 C0 0.67 0 0.34 0 0 Z " fill="#C42521" transform="translate(237,307)"/>
<path d="M0 0 C2.06183633 -0.08150744 4.12461349 -0.1394194 6.1875 -0.1875 C7.33605469 -0.22230469 8.48460937 -0.25710937 9.66796875 -0.29296875 C13.3044035 0.02676467 15.1105914 0.81841727 18 3 C19.56935594 6.13871188 19.35201103 8.53855822 19 12 C17.375 14.9375 17.375 14.9375 14 17 C9.30405924 17.41481696 4.70106938 17.28626268 0 17 C0.495 15.515 0.495 15.515 1 14 C1.09377689 12.16859259 1.12992957 10.33380013 1.125 8.5 C1.12757813 7.5409375 1.13015625 6.581875 1.1328125 5.59375 C1.10992972 2.88428848 1.10992972 2.88428848 0 0 Z " fill="#6E6E6E" transform="translate(288,17)"/>
</svg>
